<?xml version="1.0" encoding="iso-8859-1"?>
<!-- Generator: Adobe Illustrator 19.0.0, SVG Export Plug-In . SVG Version: 6.00 Build 0)  -->
<svg version="1.1" id="Capa_1" xmlns="http://www.w3.org/2000/svg" xmlns:xlink="http://www.w3.org/1999/xlink" x="0px" y="0px"
	 viewBox="0 0 384 384" style="enable-background:new 0 0 384 384;" xml:space="preserve">
<path style="fill:#F7BA61;" d="M320,88H160c-35.346,0-64,28.654-64,64v64c0,35.346,28.654,64,64,64h96l64,56v-56
	c35.346,0,64-28.654,64-64v-64C384,116.654,355.346,88,320,88z"/>
<path style="fill:#F9E0A0;" d="M224,48H64C28.654,48,0,76.654,0,112v56c0,35.346,28.654,64,64,64h8v56l64-56h88
	c35.346,0,64-28.654,64-64v-56C288,76.654,259.346,48,224,48z"/>
<path style="fill:#F4CA62;" d="M96,152v64c-0.004,14.206,4.744,28.004,13.488,39.2L136,232h88c35.346,0,64-28.654,64-64v-56
	c0-8.228-1.595-16.379-4.696-24H160C124.654,88,96,116.654,96,152L96,152z"/>
<g>
	<circle style="fill:#8DC79D;" cx="152" cy="160" r="16"/>
	<circle style="fill:#8DC79D;" cx="48" cy="160" r="16"/>
	<circle style="fill:#8DC79D;" cx="224" cy="160" r="16"/>
</g>
<g>
</g>
<g>
</g>
<g>
</g>
<g>
</g>
<g>
</g>
<g>
</g>
<g>
</g>
<g>
</g>
<g>
</g>
<g>
</g>
<g>
</g>
<g>
</g>
<g>
</g>
<g>
</g>
<g>
</g>
</svg>
