<?xml version="1.0"?>
<svg xmlns="http://www.w3.org/2000/svg" xmlns:xlink="http://www.w3.org/1999/xlink" version="1.1" id="Layer_1" x="0px" y="0px" viewBox="0 0 498.654 498.654" style="enable-background:new 0 0 498.654 498.654;" xml:space="preserve" width="512px" height="512px" class=""><g><g>
	<path d="M351.216,325.825c-8.284,0-15,6.716-15,15v56.634l-47.148-65.405c-8.478-11.762-27.168-5.763-27.168,8.771V443.92   c0,8.284,6.716,15,15,15s15-6.716,15-15v-56.635l47.148,65.406c8.5,11.792,27.168,5.766,27.168-8.771V340.825   C366.216,332.541,359.5,325.825,351.216,325.825z" data-original="#000000" class="active-path" data-old_color="#000000" fill="#F2F7FA"/>
	<path d="M222.105,355.825c8.284,0,15-6.716,15-15s-6.716-15-15-15h-74.316c-8.284,0-15,6.716-15,15V443.92c0,8.284,6.716,15,15,15   h74.316c8.284,0,15-6.716,15-15s-6.716-15-15-15h-59.316v-21.548h37.034c8.284,0,15-6.716,15-15s-6.716-15-15-15h-37.034v-21.547   H222.105z" data-original="#000000" class="active-path" data-old_color="#000000" fill="#F2F7FA"/>
	<path d="M107.993,366.599c0-22.482-18.291-40.773-40.773-40.773H18.678c-8.284,0-15,6.716-15,15c0,14.935,0,88.132,0,103.095   c0,8.284,6.716,15,15,15s15-6.716,15-15v-36.548h14.375l32.676,46.396c4.769,6.771,14.125,8.398,20.901,3.627   c6.773-4.771,8.396-14.128,3.626-20.901l-22.642-32.149C97.486,398.257,107.993,383.636,107.993,366.599z M67.22,377.372H33.678   v-21.547H67.22c5.94,0,10.773,4.833,10.773,10.773S73.16,377.372,67.22,377.372z" data-original="#000000" class="active-path" data-old_color="#000000" fill="#F2F7FA"/>
	<path d="M480.327,325.825h-74.316c-8.284,0-15,6.716-15,15s6.716,15,15,15h22.158v88.095c0,8.284,6.716,15,15,15s15-6.716,15-15   v-88.095h22.158c8.284,0,15-6.716,15-15S488.611,325.825,480.327,325.825z" data-original="#000000" class="active-path" data-old_color="#000000" fill="#F2F7FA"/>
	<path d="M498.571,225.061l-10.27-40.181c-3.15-12.319-14.24-20.93-26.96-20.93H7.431c-2.01,4.84-3.86,9.78-5.5,14.77   c-8.051,24.51,10.079,49.601,35.77,49.601h16.92c23.549-43.247,85.527-43.237,109.07,0h169.22   c23.549-43.247,85.527-43.237,109.07,0h54.06C497.77,228.321,498.992,226.717,498.571,225.061z" data-original="#000000" class="active-path" data-old_color="#000000" fill="#F2F7FA"/>
	<path d="M419.491,258.321c1.072-14.959-12.34-32.47-32.04-32.47c-19.666,0-33.124,17.479-32.05,32.47   c0.22,17.49,14.51,31.64,32.05,31.64C404.981,289.961,419.271,275.811,419.491,258.321z" data-original="#000000" class="active-path" data-old_color="#000000" fill="#F2F7FA"/>
	<path d="M109.161,225.851c-19.602,0-33.13,17.407-32.05,32.47c0.22,17.49,14.51,31.64,32.05,31.64   c17.755,0,32.05-14.468,32.05-32.06C141.211,240.237,126.83,225.851,109.161,225.851z" data-original="#000000" class="active-path" data-old_color="#000000" fill="#F2F7FA"/>
	<path d="M226.921,38.721v95.23c5.307,0,125.745,0,133.88,0C343.612,81.778,293.142,38.721,226.921,38.721z" data-original="#000000" class="active-path" data-old_color="#000000" fill="#F2F7FA"/>
	<path d="M196.921,38.521c-63.744,0-131.895,31.926-173.89,95.43h173.89V38.521z" data-original="#000000" class="active-path" data-old_color="#000000" fill="#F2F7FA"/>
</g></g> </svg>
